<?xml version="1.0" standalone="no"?>
<!DOCTYPE svg PUBLIC "-//W3C//DTD SVG 1.1//EN" "http://www.w3.org/Graphics/SVG/1.1/DTD/svg11.dtd" >
<!--
2013-9-30: Created.
-->
<svg>
<metadata>
Created by iconfont
</metadata>
<defs>

<font id="iconfont" horiz-adv-x="1024" >
  <font-face
    font-family="iconfont"
    font-weight="500"
    font-stretch="normal"
    units-per-em="1024"
    ascent="896"
    descent="-128"
  />
    <missing-glyph />
    
    <glyph glyph-name="kongjing" unicode="&#58987;" d="M677.504 364.64l182.112 309.248c-91.36 85.056-212.864 138.112-347.616 138.112-31.936 0-62.88-3.808-93.184-9.376l258.688-437.984zM638.496 172l367.36 0c10.656 41.12 18.144 83.488 18.144 128 0 123.936-45.76 236.064-119.136 324.64l-266.368-452.64zM528 492l-173.056 292.864c-144-46.688-260.448-153.536-316.928-292.864l489.984 0zM500.256 108l172.512-291.744c142.368 47.488 257.248 153.632 313.248 291.744l-485.76 0zM387.36 428l-369.248 0c-10.688-41.12-18.112-83.488-18.112-128 0-124.512 46.24-237.12 120.192-326.016l267.168 454.016zM349.376 237.248l-183.808-312.256c91.296-84.256 212.32-136.992 346.432-136.992 33.312 0 65.76 3.744 97.248 9.76l-259.872 439.488z"  horiz-adv-x="1024" />

    
    <glyph glyph-name="zengjia" unicode="&#58975;" d="M668.255275 384c0 17.540492-14.175861 31.68156-31.647791 31.68156l-94.924953 0L541.682531 510.589117c0 17.47193-14.174837 31.68156-31.646767 31.68156-17.49035 0-31.630395-14.20963-31.630395-31.68156l0-94.907557-94.941326 0c-17.489326 0-31.647791-14.141068-31.647791-31.68156 0-17.47193 14.175861-31.612998 31.647791-31.612998l94.941326 0 0-94.907557c0-17.47193 14.140045-31.68156 31.630395-31.68156 17.47193 0 31.646767 14.20963 31.646767 31.68156l0 94.907557 94.924953 0C654.080437 352.387002 668.255275 366.52807 668.255275 384zM274.671245 732.08579l-94.924953 0c-8.735965 0-15.824407-7.071046-15.824407-15.84078l0-94.907557c0-8.702196 7.088442-15.839757 15.824407-15.839757s15.823384 7.138584 15.823384 15.839757l0 79.135338 79.101569 0c8.735965 0 15.823384 7.070023 15.823384 15.772218C290.494629 725.014744 283.40721 732.08579 274.671245 732.08579zM464.5365 67.596793l-94.92393 0c-8.736988 0-15.824407-7.071046-15.824407-15.84078 0-8.702196 7.087419-15.839757 15.824407-15.839757l94.92393 0c8.703219 0 15.824407 7.138584 15.824407 15.839757C480.360907 60.524724 473.239719 67.596793 464.5365 67.596793zM179.746292 225.797885c8.735965 0 15.823384 7.070023 15.823384 15.839757l0 94.907557c0 8.769734-7.087419 15.84078-15.823384 15.84078s-15.824407-7.071046-15.824407-15.84078l0-94.907557C163.921885 232.867908 171.010327 225.797885 179.746292 225.797885zM179.746292 415.68156c8.735965 0 15.823384 7.070023 15.823384 15.772218l0 94.976118c0 8.702196-7.087419 15.84078-15.823384 15.84078s-15.824407-7.139607-15.824407-15.84078l0-94.976118C163.921885 422.751582 171.010327 415.68156 179.746292 415.68156zM274.671245 67.596793l-79.101569 0 0 79.066777c0 8.769734-7.087419 15.84078-15.823384 15.84078s-15.824407-7.071046-15.824407-15.84078l0-94.907557c0-8.702196 7.088442-15.839757 15.824407-15.839757l94.924953 0c8.735965 0 15.823384 7.138584 15.823384 15.839757C290.494629 60.524724 283.40721 67.596793 274.671245 67.596793zM369.612571 700.472791l94.92393 0c8.703219 0 15.824407 7.070023 15.824407 15.772218 0 8.769734-7.121188 15.84078-15.824407 15.84078l-94.92393 0c-8.736988 0-15.824407-7.071046-15.824407-15.84078C353.788164 707.542814 360.875582 700.472791 369.612571 700.472791zM844.251661 542.270676c-8.719592 0-15.805988-7.139607-15.805988-15.84078l0-94.976118c0-8.702196 7.087419-15.772218 15.805988-15.772218s15.824407 7.070023 15.824407 15.772218l0 94.976118C860.076068 535.131069 852.971253 542.270676 844.251661 542.270676zM844.251661 352.387002c-8.719592 0-15.805988-7.071046-15.805988-15.84078l0-94.907557c0-8.769734 7.087419-15.839757 15.805988-15.839757s15.824407 7.070023 15.824407 15.839757l0 94.907557C860.076068 345.315956 852.971253 352.387002 844.251661 352.387002zM844.251661 732.08579l-94.924953 0c-8.735965 0-15.823384-7.071046-15.823384-15.84078 0-8.702196 7.087419-15.772218 15.823384-15.772218l79.117942 0 0-79.135338c0-8.702196 7.087419-15.839757 15.805988-15.839757s15.824407 7.138584 15.824407 15.839757l0 94.907557C860.076068 725.014744 852.971253 732.08579 844.251661 732.08579zM844.251661 162.50435c-8.719592 0-15.805988-7.071046-15.805988-15.84078l0-79.066777-79.117942 0c-8.735965 0-15.823384-7.071046-15.823384-15.84078 0-8.702196 7.087419-15.839757 15.823384-15.839757l94.924953 0c8.719592 0 15.824407 7.138584 15.824407 15.839757l0 94.907557C860.076068 155.433304 852.971253 162.50435 844.251661 162.50435zM654.402779 67.596793l-94.941326 0c-8.719592 0-15.823384-7.071046-15.823384-15.84078 0-8.702196 7.103792-15.839757 15.823384-15.839757l94.941326 0c8.702196 0 15.824407 7.138584 15.824407 15.839757C670.227186 60.524724 663.104975 67.596793 654.402779 67.596793zM654.402779 732.08579l-94.941326 0c-8.719592 0-15.823384-7.071046-15.823384-15.84078 0-8.702196 7.103792-15.772218 15.823384-15.772218l94.941326 0c8.702196 0 15.824407 7.070023 15.824407 15.772218C670.227186 725.014744 663.104975 732.08579 654.402779 732.08579z"  horiz-adv-x="1024" />

    
    <glyph glyph-name="shiyong" unicode="&#58880;" d="M512 896c-282.761 0-512-229.239-512-512s229.239-512 512-512 512 229.239 512 512-229.239 512-512 512zM512-59.733c-245.060 0-443.733 198.673-443.733 443.733s198.673 443.733 443.733 443.733c64.034 0 124.757-13.841 179.729-38.246l-315.58-315.58 217.225-217.225 318.566 318.566c27.785-57.975 43.793-122.658 43.793-191.249 0-245.060-198.673-443.733-443.733-443.733zM291.652 171.844l277.862 60.672-217.173 217.19-60.689-277.862z"  horiz-adv-x="1024" />

    
    <glyph glyph-name="bianjiqi" unicode="&#58896;" d="M486.642797 460.212244c0-16.474467-13.355215-29.828671-29.828671-29.828671L50.854029 430.383573c-16.474467 0-29.828671 13.355215-29.828671 29.828671L21.025358 866.171329c0 16.474467 13.355215 29.828671 29.828671 29.828671l405.960097 0c16.474467 0 29.828671-13.355215 29.828671-29.828671L486.642797 460.212244zM450.093013 840.530328c0 14.104928-11.433885 25.538814-25.538814 25.538814L76.975616 866.069141c-14.104928 0-25.538814-11.433885-25.538814-25.538814l0-347.578583c0-14.104928 11.433885-25.538814 25.538814-25.538814L424.554199 467.412931c14.104928 0 25.538814 11.433885 25.538814 25.538814L450.093013 840.530328zM1021.677002 455.242485c0-16.661643-13.506979-30.168622-30.168622-30.168622L580.918475 425.073863c-16.661643 0-30.168622 13.506979-30.168622 30.168622L550.749854 865.831378c0 16.661643 13.506979 30.168622 30.168622 30.168622l410.588893 0c16.661643 0 30.168622-13.506979 30.168622-30.168622L1021.677002 455.242485 1021.677002 455.242485zM990.780926 839.897978c0 14.265798-11.564402 25.8302-25.8302 25.8302L610.372796 865.728179c-14.265798 0-25.8302-11.564402-25.8302-25.8302l0-351.542653c0-14.265798 11.564402-25.8302 25.8302-25.8302l354.57793 0c14.265798 0 25.8302 11.564402 25.8302 25.8302L990.780926 839.897978zM644.321348 759.166714l289.854712 0 0-65.255403-289.854712 0 0 65.255403ZM644.321348 620.042806l289.854712 0 0-65.255403-289.854712 0 0 65.255403ZM253.834077 669.124234l42.69723 106.118315c-13.265169 5.057782-27.655413 7.836071-42.69723 7.836071-66.211515 0-119.887339-53.675824-119.887339-119.887339s53.675824-119.887339 119.887339-119.887339c56.985287 0 104.681617 39.759083 116.869263 93.049427L253.834077 669.124234zM393.566052 664.667437c0 53.453237-30.847512 99.693647-75.706871 121.914904l-47.229909-108.71044 121.192508-34.983582C392.964056 649.980747 393.566052 657.253269 393.566052 664.667437zM1027.747554-75.008125c0-16.474467-13.355215-29.828671-29.828671-29.828671L51.244568-104.836796c-16.474467 0-29.828671 13.355215-29.828671 29.828671L21.415897 330.95096c0 16.474467 13.355215 29.828671 29.828671 29.828671l946.674315 0c16.474467 0 29.828671-13.355215 29.828671-29.828671L1027.747554-75.008125zM991.19777 299.239406c0 14.104928-11.433885 25.538814-25.538814 25.538814L77.366155 324.77822c-14.104928 0-25.538814-11.433885-25.538814-25.538814l0-341.50803c0-14.104928 11.433885-25.538814 25.538814-25.538814l888.292801 0c14.104928 0 25.538814 11.433885 25.538814 25.538814L991.19777 299.239406zM196.331782 141.976688l125.121167 0 0-209.784126-125.121167 0 0 209.784126ZM458.98536 269.458288l125.121167 0 0-337.265726-125.121167 0 0 337.265726ZM723.652338 80.084371l125.121167 0 0-147.891809-125.121167 0 0 147.891809Z"  horiz-adv-x="1028" />

    
    <glyph glyph-name="tongji" unicode="&#59005;" d="M581.4 461.4c0 0 3.2 408.6 0 408.6 233.6 0 406-173.5 406-408.6 0.1-1.4-406 0-406 0l0 0zM953.7 377.6c0-244.4-196.9-442.7-439.8-442.7s-439.9 198.2-439.9 442.7 196.9 442.7 439.8 442.7c11.4 0 22.6-0.9 33.9-1.7l0-391.2 403.4 0c1.6-15.8 2.6-33.7 2.6-49.8l0 0zM917.7 391.2l-403.9 0 0 395c-224.2 0-406-182.9-406-408.6s181.8-408.6 406-408.6 406 182.9 406 408.6c0 43.9-2.1 13.6-2.1 13.6l0 0z"  horiz-adv-x="1024" />

    
    <glyph glyph-name="programming__easyiconnet" unicode="&#58881;" d="M857.054 740.284H166.95c-25.996 0-47.136-21.146-47.136-47.138v-618.292c0-25.992 21.14-47.138 47.136-47.138h690.106c25.988 0 47.132 21.146 47.132 47.138V693.146c0 25.99-21.146 47.138-47.134 47.138z m-142.12-79.154a17.406 17.406 0 0 0 17.402 17.406h17.406a17.4 17.4 0 0 0 17.402-17.406v-19.726a17.402 17.402 0 0 0-17.402-17.404h-17.406a17.404 17.404 0 0 0-17.402 17.404v19.726z m-80.934 0a17.408 17.408 0 0 0 17.406 17.406h17.402a17.408 17.408 0 0 0 17.406-17.406v-19.726a17.406 17.406 0 0 0-17.406-17.404h-17.402a17.406 17.406 0 0 0-17.406 17.404v19.726z m213.622-576.846H176.378V571.716H847.62v-487.432z m0.456 557.12a17.404 17.404 0 0 0-17.402-17.404h-17.406a17.4 17.4 0 0 0-17.406 17.404v19.726a17.404 17.404 0 0 0 17.406 17.406h17.406a17.404 17.404 0 0 0 17.402-17.406v-19.726zM288.184 309.618l126.168-58.672a24.538 24.538 0 0 1 23.52 1.572 24.428 24.428 0 0 1 11.332 20.67v0.644c0 9.502-5.57 18.232-14.192 22.238l-78.91 36.662 78.91 36.668a24.606 24.606 0 0 1 14.192 22.236v0.638c0 8.42-4.238 16.15-11.332 20.668a24.484 24.484 0 0 1-13.21 3.832c-3.558 0-7.126-0.782-10.32-2.266l-126.16-58.666a24.608 24.608 0 0 1-14.18-22.234v-1.754c-0.002-9.486 5.56-18.212 14.182-22.236zM450.328 190.114a24.6 24.6 0 0 1 19.8-10.06h0.632a24.438 24.438 0 0 1 23.344 17.032l83.11 257.522a24.6 24.6 0 0 1-3.54 21.946 24.604 24.604 0 0 1-19.804 10.06h-0.632a24.446 24.446 0 0 1-23.356-17.032L446.764 212.04a24.63 24.63 0 0 1 3.564-21.926zM574.796 391.634c0-9.492 5.566-18.222 14.188-22.246l78.91-36.66-78.91-36.66a24.608 24.608 0 0 1-14.188-22.238v-0.644a24.42 24.42 0 0 1 11.336-20.672 24.492 24.492 0 0 1 13.188-3.846c3.586 0 7.058 0.766 10.34 2.282l126.16 58.67c8.614 4.018 14.18 12.744 14.18 22.23v1.754c0 9.498-5.566 18.226-14.188 22.236l-126.16 58.666a24.586 24.586 0 0 1-10.304 2.262c-4.714 0-9.286-1.322-13.21-3.824a24.4 24.4 0 0 1-11.34-20.674v-0.636z"  horiz-adv-x="1024" />

    
    <glyph glyph-name="rizhi" unicode="&#58917;" d="M244.746 858.868v-82.292H86.219V122.93h210.527v-161.47h640.678V774.092H786.666v80.35c59.826 0 120.367 4.284 179.95-1.543 37.347-3.614 56.798-42.117 57.013-89.547 0.3-65.496 0.171-130.992 0.185-196.488v-589.45c0.075-7.704-0.25-15.408-0.97-23.079-5.3-50.272-37.562-80.42-88.205-80.506-214.826-0.314-429.651-0.671-644.477 0.771-19.466 0.129-42.06 8.884-57.713 20.837-68.88 52.557-135.547 107.999-203.443 161.87C9.27 73.015 0.114 92.566 0.13 117.288c0 217.71-0.457 435.435 0.428 653.146 0.228 55.156 31.563 86.376 86.005 88.018 51.814 1.557 103.7 0.329 158.227 0.329l-0.043 0.086zM156.627 461.562h709.805v-82.272H156.627v82.259zM869.115 505.11h-714.53c0 23.707-1.728 46.615 1.129 68.951 0.785 6.056 15.295 14.61 23.636 14.768 65.396 1.228 130.85 0.685 196.274 0.685 153.957 0 307.9-0.614 461.842 0.6 25.85 0.2 34.776-7.355 31.977-32.591-1.785-16.053-0.343-32.448-0.343-52.4l0.015-0.014zM514.528 336.442c107.913 0 215.825-0.6 323.738 0.471 23.365 0.229 32.005-5.598 31.42-30.406-1.285-56.098 0-56.127-57.127-56.127-207.085 0-414.327 0.543-621.47-0.643-28.563-0.157-39.16 5.827-37.375 36.376 3.385 57.398-7.626 49.986 51.486 50.2 103.128 0.414 206.228 0.129 309.328 0.129zM551.446 807.568v-48.915c0.1-23.123-12.225-36.904-34.276-38.261-22.68-1.428-36.775 12.853-37.804 34.804a996.722 996.722 0 0 0 0.157 106.342C480.81 882.69 493.905 897.628 517.584 895.814c21.637-1.613 32.048-16.038 33.334-36.518 1.085-17.138 0.214-34.519 0.214-51.771h0.271l0.043 0.043zM754.76 808.053c0-18.252 0.772-36.547-0.213-54.742-1.1-20.437-14.282-32.105-33.405-33.02-18.91-0.899-35.705 8.727-36.747 29.093a1096.607 1096.607 0 0 0 0 117.581C685.523 886.431 700.905 897.414 720.985 895.8c21.05-1.7 32.947-14.467 33.676-35.89 0.6-17.28 0.128-34.59 0.128-51.871h-0.1l0.072 0.014zM275.637 807.796c0 17.238-1.314 34.605 0.343 51.686 1.914 19.68 11.426 35.333 33.59 36.375 23.466 1.086 36.52-13.782 37.805-34.876 2.127-35.304 1.77-70.88 0.37-106.242-0.813-20.765-14.28-34.547-35.232-34.476-21.851 0.072-35.804 12.854-36.818 35.819-0.772 17.138-0.158 34.476-0.158 51.714h0.1zM582.537 776.362V858.868c19.052 0 37.233 1.256 55.042-0.729 5.713-0.628 14.282-9.554 14.81-15.224 1.743-21.708 0.7-43.645 0.7-66.567h-70.552v0.014zM447.674 856.64v-79.706H379.45V856.64h68.21z"  horiz-adv-x="1024" />

    
    <glyph glyph-name="daiban-fuben_fuzhi" unicode="&#58943;" d="M153.875 609.881c10.698 0 20.653 6.649 24.452 17.189 0.109 0.304 11.616 31.041 35.589 55.014 25.503 25.503 57.92 43.017 58.218 43.176 11.358 6.054 16.578 19.505 12.276 31.636-15.921 44.893-58.635 75.056-106.288 75.056-62.171 0-112.75-50.58-112.75-112.751 0-24.906 7.963-48.521 23.028-68.291 14.563-19.111 35.237-33.313 58.211-39.991a25.985 25.985 0 0 1 7.264-1.038zM843.477 831.952c-47.652 0-90.366-30.163-106.288-75.056-4.36-12.295 1.091-25.93 12.71-31.861 0.347-0.177 34.951-17.985 60.052-43.085 22.841-22.84 32.482-52.303 32.913-53.649 3.338-11.257 13.587-18.437 24.754-18.437 2.434 0 4.913 0.341 7.371 1.056 22.976 6.677 43.648 20.879 58.212 39.991 15.064 19.77 23.027 43.384 23.027 68.29 0 62.171-50.581 112.751-112.751 112.751zM880.554 501.851c-20.214 47.79-49.146 90.704-85.991 127.55-36.847 36.847-79.761 65.778-127.551 85.992-49.491 20.933-102.049 31.547-156.212 31.547-54.164 0-106.721-10.614-156.212-31.547-47.79-20.213-90.704-49.145-127.55-85.992-36.847-36.846-65.778-79.76-85.992-127.55-20.933-49.491-31.547-102.048-31.547-156.212s10.614-106.721 31.547-156.212c20.213-47.79 49.146-90.704 85.992-127.551 36.846-36.846 79.761-65.777 127.55-85.991 49.491-20.933 102.048-31.547 156.212-31.547 54.164 0 106.721 10.614 156.212 31.547 47.79 20.214 90.704 49.146 127.551 85.991 36.846 36.847 65.777 79.761 85.991 127.551 20.933 49.491 31.547 102.048 31.547 156.212s-10.615 106.721-31.547 156.212zM763.192 436.07L499.205 210.2c-0.111-0.095-0.226-0.183-0.339-0.277-0.258-0.215-0.516-0.43-0.779-0.636-0.149-0.117-0.301-0.229-0.451-0.343-0.297-0.226-0.593-0.452-0.896-0.666-0.025-0.018-0.051-0.034-0.076-0.051-0.644-0.454-1.303-0.878-1.971-1.283-0.208-0.126-0.415-0.256-0.626-0.378-0.228-0.131-0.459-0.254-0.689-0.38-0.27-0.147-0.539-0.294-0.812-0.433a38.433 38.433 0 0 0-2.081-0.976c-0.386-0.165-0.774-0.322-1.164-0.472-0.115-0.044-0.229-0.091-0.344-0.133a33.752 33.752 0 0 0-4.905-1.416l-0.15-0.03a34.318 34.318 0 0 0-3.157-0.49c-0.105-0.011-0.211-0.024-0.316-0.034a34.4 34.4 0 0 0-1.433-0.11c-0.08-0.005-0.16-0.012-0.24-0.016-0.554-0.027-1.108-0.044-1.661-0.044l-0.093 0.002a34.088 34.088 0 0 0-1.598 0.042c-0.152 0.008-0.304 0.021-0.455 0.03-0.42 0.026-0.84 0.058-1.26 0.1-0.158 0.016-0.315 0.035-0.473 0.053a33.556 33.556 0 0 0-1.263 0.167c-0.142 0.022-0.284 0.043-0.425 0.067-0.456 0.075-0.91 0.16-1.363 0.254-0.102 0.021-0.203 0.04-0.305 0.062a33.698 33.698 0 0 0-4.99 1.488c-0.124 0.048-0.246 0.099-0.37 0.148a33.39 33.39 0 0 0-1.179 0.493c-0.182 0.081-0.363 0.165-0.544 0.248a35.48 35.48 0 0 0-1.607 0.796 37.356 37.356 0 0 0-0.807 0.445c-0.244 0.138-0.489 0.274-0.73 0.419-0.212 0.127-0.421 0.262-0.631 0.394a33.645 33.645 0 0 0-3.084 2.188c-0.125 0.1-0.253 0.196-0.377 0.298-0.274 0.225-0.541 0.459-0.809 0.693-0.123 0.107-0.249 0.208-0.371 0.318l-167.99 150.875c-13.971 12.547-15.125 34.044-2.578 48.014 12.547 13.972 34.043 15.125 48.014 2.578l145.817-130.959 241.339 206.494c14.27 12.207 35.732 10.538 47.938-3.73 12.209-14.268 10.539-35.731-3.729-47.939z"  horiz-adv-x="1024" />

    
    <glyph glyph-name="performance-monitoring" unicode="&#58920;" d="M940.8 761.6H83.2c-25.6 0-51.2-25.6-51.2-51.2v-659.2c0-25.6 25.6-51.2 51.2-51.2h857.6c25.6 0 51.2 25.6 51.2 51.2V710.4c0 32-19.2 51.2-51.2 51.2z m-38.4-102.4V384h-147.2l-57.6 64-64-64H512l-19.2-64-89.6 275.2L332.8 384l-57.6 83.2L230.4 384H128V665.6h774.4zM128 96V294.4h121.6l25.6 44.8 64-96 57.6 172.8 89.6-268.8 44.8 147.2H640l44.8 44.8 38.4-44.8h166.4v-198.4H128z"  horiz-adv-x="1024" />

    
    <glyph glyph-name="shijiguiguanliman" unicode="&#59042;" d="M743.5 833H281.7c-18.2 0-33.1-14.8-33.1-33.1v-80.2c0-18.2 14.8-33.1 33.1-33.1h32v-546.5c0-109.6 89.2-198.8 198.8-198.8s198.8 89.2 198.8 198.8V686.7h32.2c18.2 0 33.1 14.8 33.1 33.1V800c0 18.2-14.9 33-33.1 33zM450.6 180.1h-98.3v40h98.3c11 0 20-9 20-20s-9-20-20-20zM670 376.9H355v41.3h315v-41.3zM352.3 575.4v40h98.3c11 0 20-9 20-20s-9-20-20-20h-98.3zM735.2 728H289.9v63.7h445.3V728z"  horiz-adv-x="1024" />

    
    <glyph glyph-name="huanyuan" unicode="&#58932;" d="M512 358.4h313.6L512 697.6v-339.2z m0 0H192l320-288V358.4z m-313.6-288C25.6 243.2 25.6 531.2 198.4 704S659.2 876.8 832 704s172.8-460.8 0-633.6c-179.2-179.2-460.8-179.2-633.6 0z"  horiz-adv-x="1024" />

    
    <glyph glyph-name="zhineng" unicode="&#58891;" d="M526.453 187.22h-0.03a878.12 878.12 0 0 0-17.779 0.181c-102.895 1.966-199.591 20.833-272.22 53.066-77.164 34.258-119.132 80.43-118.164 129.957 0.907 48.166 42.513 91.798 117.076 122.912 69.907 29.148 163.036 45.203 262.272 45.203 5.897 0 11.853-0.061 17.779-0.181 102.895-1.966 199.562-20.803 272.22-53.066 77.134-34.258 119.102-80.43 118.164-129.957-0.938-48.166-42.513-91.798-117.106-122.912-69.876-29.148-163.006-45.203-262.211-45.203z m-28.846 318.15c-94.943 0-183.536-15.149-249.482-42.663-60.805-25.369-96.062-59.203-96.697-92.917-0.666-34.833 35.226-70.905 98.45-98.994 68.698-30.479 160.829-48.318 259.399-50.223 5.684-0.121 11.459-0.151 17.145-0.151h0.03c94.913 0 183.506 15.149 249.452 42.634 60.805 25.369 96.031 59.233 96.667 92.917 0.695 34.833-35.196 70.905-98.45 98.994-68.668 30.509-160.798 48.349-259.37 50.223a811.993 811.993 0 0 1-17.145 0.181zM676.759 19.529c-43.662 0-96.697 23.857-153.33 68.999-55.968 44.599-110.545 106.01-157.866 177.58-56.724 85.872-96.062 176.189-110.697 254.29-15.541 82.999-1.33 143.714 40.003 171.049 14.877 9.827 32.505 14.816 52.4 14.816 43.662 0 96.667-23.887 153.299-68.999 55.968-44.599 110.575-106.01 157.866-177.61 56.754-85.872 96.062-176.189 110.697-254.29 15.541-82.97 1.361-143.714-40.003-171.049-14.846-9.827-32.474-14.786-52.37-14.786zM347.271 673.061c-13.305 0-24.764-3.115-34.107-9.313-29.057-19.2-38.431-69.212-25.67-137.244 13.849-73.868 51.403-159.83 105.767-242.105 45.415-68.698 97.573-127.477 150.85-169.93 49.981-39.822 97.09-61.774 132.647-61.774 13.274 0 24.734 3.145 34.077 9.313 29.088 19.2 38.431 69.212 25.701 137.244-13.849 73.868-51.433 159.83-105.767 242.105-45.415 68.727-97.603 127.477-150.881 169.93-49.951 39.852-97.059 61.774-132.618 61.774zM366.35 6.949c-16.116 0-30.932 3.598-44.176 10.885-43.42 23.887-62.499 83.271-53.73 167.238 8.285 79.039 40.155 172.258 89.773 262.423 54.154 98.42 123.85 182.025 191.216 229.436 7.499 5.261 17.84 3.447 23.101-4.051 5.292-7.469 3.477-17.84-4.021-23.101-63.376-44.569-129.412-124.151-181.207-218.278-47.532-86.386-78.011-175.131-85.842-249.875-7.197-68.818 6.169-117.923 36.677-134.734 30.539-16.781 79.159-1.783 133.434 41.122 58.961 46.625 117.62 119.858 165.152 206.244 51.795 94.157 83.634 192.516 87.383 269.922 0.423 9.162 8.194 16.207 17.356 15.783 9.162-0.453 16.207-8.224 15.783-17.386-3.991-82.274-37.312-185.894-91.466-284.315-49.618-90.165-111.27-166.966-173.618-216.283-45.989-36.374-89.198-55.03-125.814-55.03zM685.165 677.628z m-83.423 0c0-46.081 37.373-83.423 83.423-83.423 46.081 0 83.453 37.342 83.453 83.423s-37.373 83.423-83.453 83.423c-46.05 0-83.423-37.342-83.423-83.423z"  horiz-adv-x="1024" />

    
    <glyph glyph-name="SOP" unicode="&#59595;" d="M288 64H96c-19.2 0-32 12.8-32 32s12.8 32 32 32h160v176l-179.2 118.4c-6.4 6.4-12.8 16-12.8 25.6V672c0 19.2 12.8 32 32 32h192c19.2 0 32-12.8 32-32s-12.8-32-32-32H128v-176l179.2-118.4c6.4-6.4 12.8-16 12.8-25.6v-224c0-19.2-12.8-32-32-32zM608 64h-192c-19.2 0-32 12.8-32 32V672c0 19.2 12.8 32 32 32h192c19.2 0 32-12.8 32-32v-576c0-19.2-12.8-32-32-32z m-160 64h128V640h-128v-512zM736 64c-19.2 0-32 12.8-32 32V672c0 19.2 12.8 32 32 32h192c19.2 0 32-12.8 32-32v-288c0-19.2-12.8-32-32-32h-160v-256c0-19.2-12.8-32-32-32z m32 352h128V640h-128v-224z"  horiz-adv-x="1024" />

    
    <glyph glyph-name="tongyidakongpiliangtongyizhongzhi" unicode="&#58906;" d="M858.112 123.904c-28.672 0-53.248-14.336-69.632-34.816l-71.68 61.44c32.768 43.008 53.248 98.304 53.248 157.696 0 141.312-112.64 256-251.904 260.096v77.824c43.008 4.096 77.824 40.96 77.824 86.016 0 47.104-38.912 86.016-86.016 86.016-47.104 0-86.016-38.912-86.016-86.016 0-45.056 34.816-81.92 77.824-86.016v-77.824c-139.264-6.144-251.904-118.784-251.904-260.096 0-59.392 20.48-114.688 53.248-157.696l-71.68-59.392c-16.384 20.48-40.96 34.816-69.632 34.816-47.104 0-86.016-38.912-86.016-86.016 0-47.104 38.912-86.016 86.016-86.016 47.104 0 86.016 38.912 86.016 86.016 0 12.288-2.048 24.576-8.192 36.864l73.728 61.44c47.104-53.248 116.736-88.064 194.56-88.064s147.456 34.816 194.56 88.064l73.728-61.44c-4.096-10.24-8.192-22.528-8.192-36.864 0-47.104 38.912-86.016 86.016-86.016s86.016 38.912 86.016 86.016c6.144 45.056-32.768 83.968-81.92 83.968zM512 144.384c-77.824 0-145.408 57.344-157.696 133.12H307.2l65.536 79.872 38.912-45.056 32.768-36.864h-53.248C405.504 220.16 454.656 179.2 512 179.2c69.632 0 124.928 57.344 124.928 126.976S581.632 433.152 512 433.152c-40.96 0-75.776-18.432-98.304-49.152 0 0-14.336 2.048-18.432 6.144-6.144 8.192-6.144 20.48-6.144 22.528 28.672 36.864 73.728 59.392 124.928 59.392 90.112 0 161.792-73.728 161.792-163.84-2.048-90.112-73.728-163.84-163.84-163.84z"  horiz-adv-x="1024" />

    
    <glyph glyph-name="fenxi" unicode="&#59386;" d="M847.872 769.024c-61.44 53.248-135.168 92.16-217.088 112.64l-73.728-411.648 290.816 299.008z m40.96-38.912l-331.776-339.968 407.552-243.712c36.864 69.632 59.392 151.552 59.392 237.568 0 133.12-51.2 253.952-135.168 346.112z m0 0M483.328 369.664h-4.096L573.44 891.904c-20.48 2.048-40.96 4.096-61.44 4.096C229.376 896 0 666.624 0 384s229.376-512 512-512c176.128 0 331.776 90.112 423.936 225.28l-452.608 272.384z m0 0"  horiz-adv-x="1024" />

    
    <glyph glyph-name="xiaji" unicode="&#58903;" d="M504.64 390.56V573.76h-94.4v-183.2h-94.4l141.76-141.6 141.76 141.6z m0 0M246.4 128V640h392.64v-84.96l55.36 0.96v-112h64v153.44L640 715.52H179.68v-663.04h259.84L437.76 128z m0 0M662.88 208a25.92 25.92 0 1 1 25.92 25.92A25.92 25.92 0 0 1 662.88 208z m0 0M819.36 238.72h-16a117.28 117.28 0 0 1-11.04 27.2l14.72 14.72a24.96 24.96 0 0 1 0 35.36l-8.8 8.8a25.12 25.12 0 0 1-35.36 0l-14.4-14.4a116.16 116.16 0 0 1-28.48 11.84v16.8a24.96 24.96 0 0 1-24.96 24.96h-12.32a24.96 24.96 0 0 1-24.96-24.96v-16a117.92 117.92 0 0 1-28.32-11.84l-14.4 14.4a25.12 25.12 0 0 1-35.36 0l-8.8-8.8a25.12 25.12 0 0 1 0-35.36l14.72-14.72a120.8 120.8 0 0 1-11.04-27.2h-16a24.96 24.96 0 0 1-24.96-24.96v-12.48A24.96 24.96 0 0 1 557.76 176h16a120.48 120.48 0 0 1 11.36-27.36l-16-16a25.12 25.12 0 0 1 0-35.36l8.8-8.8a24.96 24.96 0 0 1 35.36 0l16 16a116.96 116.96 0 0 1 27.36-11.2v-16a24.96 24.96 0 0 1 24.96-24.96h12.48A24.96 24.96 0 0 1 720 77.44v16a256 256 0 0 1 27.36 11.2l16-16a24.96 24.96 0 0 1 35.36 0l8.8 8.8a24.96 24.96 0 0 1 0 35.36l-16 16a120.48 120.48 0 0 1 11.36 27.2h16a25.12 25.12 0 0 1 24.96 25.12v12.48a24.96 24.96 0 0 1-24.96 24.96zM688 138.4a68.64 68.64 0 1 0 68.64 68.64A68.8 68.8 0 0 0 688 138.4z m0 0"  horiz-adv-x="1024" />

    
    <glyph glyph-name="jiancexitong" unicode="&#58883;" d="M915.456 724.992l-376.32 165.888c-7.68 3.584-16.384 5.12-24.576 5.12-8.192 0-16.896-1.536-24.576-5.12l-376.32-165.888c-23.04-10.24-37.888-33.28-37.888-59.392V450.048c0-393.216 329.728-541.184 417.28-573.952 13.824-5.12 29.184-5.12 43.008 0 88.064 32.256 417.28 180.224 417.28 573.952v215.552c0 25.6-14.848 49.152-37.888 59.392z m-400.896-609.28c-161.792 0-292.352 131.072-292.352 292.352 0 86.016 36.864 163.328 96.256 216.576l60.416-76.8c-36.352-35.328-59.392-84.992-59.392-139.776 0-107.52 87.552-195.072 195.072-195.072s195.072 87.552 195.072 195.072-87.552 195.072-195.072 195.072c-35.328 0-68.608-9.216-96.768-25.6l-60.928 77.312c45.568 29.184 99.84 46.08 157.696 46.08 161.792 0 292.352-131.072 292.352-292.352 0-161.792-130.56-292.864-292.352-292.864z m0 243.712c27.136 0 48.64 22.016 48.64 48.64 0 27.136-22.016 48.64-48.64 48.64h-2.048l-64 81.408c19.968 10.24 42.496 15.872 66.56 15.872 80.896 0 146.432-65.536 146.432-146.432s-65.536-146.432-146.432-146.432-146.432 65.536-146.432 146.432c0 39.424 15.36 74.752 40.96 101.376l61.952-78.848c-3.584-6.656-5.632-14.336-5.632-22.016 0-26.624 21.504-48.64 48.64-48.64z"  horiz-adv-x="1024" />

    
    <glyph glyph-name="toggle" unicode="&#58882;" d="M832.2 631.4H192.3c-35.2 0-64 28.8-64 64s28.8 64 64 64h639.8c35.2 0 64-28.8 64-64 0.1-35.2-28.7-64-63.9-64zM832.2 318.1H196.1c-35.2 0-64 28.8-64 64s28.8 64 64 64h636.1c35.2 0 64-28.8 64-64s-28.8-64-64-64zM832.2-0.8999999999999773H192.3c-35.2 0-64 28.8-64 64s28.8 64 64 64h639.8c35.2 0 64-28.8 64-64 0.1-35.2-28.7-64-63.9-64z"  horiz-adv-x="1024" />

    
    <glyph glyph-name="shangjitongji" unicode="&#58892;" d="M879.062 142.804c44.972 0 81.426 36.454 81.426 81.426V712.786c0 44.972-36.454 81.426-81.426 81.426H146.229c-44.971 0-81.426-36.454-81.426-81.426V224.23c0-44.971 36.454-81.426 81.426-81.426h244.278v-81.426H101.815c-20.442 0-37.012-16.57-37.012-37.012v-7.402c0-20.442 16.57-37.012 37.012-37.012h821.661c20.442 0 37.012 16.57 37.012 37.012v7.402c0 20.442-16.57 37.012-37.012 37.012H594.071v81.426h284.991zM227.655 224.23c-44.972 0-81.426 36.454-81.426 81.426V631.36c0 44.972 36.454 81.426 81.426 81.426h569.981c44.971 0 81.426-36.454 81.426-81.426v-325.704c0-44.972-36.454-81.426-81.426-81.426H227.655z m569.981 366.413c0 22.486-23.198 40.717-51.815 40.717H279.47c-28.617 0-51.815-18.231-51.815-40.717v-244.274c0-22.486 23.198-40.713 51.815-40.713h466.351c28.617 0 51.815 18.227 51.815 40.713V590.643z m-407.13-171.117c0-17.918-14.526-32.444-32.444-32.444h-16.538c-17.918 0-32.444 14.526-32.444 32.444v57.251c0 17.918 14.526 32.444 32.444 32.444h16.538c17.918 0 32.444-14.526 32.444-32.444v-57.251z m162.852 0.127c0-17.991-14.583-32.57-32.57-32.57h-16.285c-17.987 0-32.57 14.579-32.57 32.57v97.711c0 17.987 14.583 32.57 32.57 32.57h16.285c17.987 0 32.57-14.583 32.57-32.57v-97.711z m162.852-0.127c0-17.918-14.526-32.444-32.444-32.444h-16.538c-17.918 0-32.444 14.526-32.444 32.444v16.538c0 17.922 14.526 32.444 32.444 32.444h16.538c17.918 0 32.444-14.522 32.444-32.444v-16.538z"  horiz-adv-x="1024" />

    
    <glyph glyph-name="DNAkuozeng-" unicode="&#58948;" d="M863.3 466.3c0-4.9-2-9.5-5.6-13.1-76-75.7-151.7-112.5-231.7-112.5-26.6 0-54 4.2-81.5 12.5l-4.3 1.3 1.3-4.3c33.1-109.2 0.9-211.4-98.3-312.4-3.7-3.5-8.1-5.4-12.4-5.4-5.1 0-9.8 2.5-13.6 7.1-4.4 4.4-5.9 7.8-5.9 13.3 0 3.7 1.8 9.1 5.7 13.1C515.3 164 540.2 261.6 495.2 373l-0.4 0.9-0.9 0.4c-36 15.2-69.8 22.7-103.4 22.7-69.7 0-136.6-32.9-204.5-100.7-3.6-3.6-8.3-5.6-13.1-5.6-4.9 0-9.5 2-13.1 5.6-4.2 4.2-5.7 7.6-5.7 13.1 0 3.7 1.8 9.1 5.7 13.1C236 396.8 311.6 433 391.1 433c26.7 0 54.2-4.2 81.9-12.5l4.3-1.3-1.3 4.3c-8.4 27.2-12.7 54.6-12.7 81.2 0 41 8.9 79.6 27.2 117.8 18.4 38.4 45.8 75.5 83.8 113.4 3.6 3.6 8.3 5.6 13.1 5.6 4.9 0 9.5-2 13.1-5.6 3.6-3.6 5.6-8.2 5.6-13.1s-2-9.5-5.6-13.1c-98.3-98.1-123.2-195.7-78.2-307.1l0.4-1 0.9-0.4c35.9-15.2 69.8-22.6 103.3-22.6 69.7 0 136.6 32.9 204.5 100.7 3.6 3.6 8.2 5.6 13.1 5.6 4.8 0 9.5-2 13.1-5.6 3.7-3.5 5.7-8.1 5.7-13zM445.6 159.1c-3.3-3.3-7.6-5.1-12-5.1s-8.7 1.8-12.1 5.2L287 293.9c-3.6 3.6-5.2 8.7-5.2 12.1s1.6 8.5 5.2 12.1c3.3 3.3 7.6 5.2 12.1 5.2 4.4 0 8.7-1.8 12-5.2l134.6-134.7c6.9-7 6.9-17-0.1-24.3zM492.4 253.9c0-4.4-1.8-8.5-5-11.8-3.2-3.2-7.7-5-12.3-5-4.6 0-8.6 1.8-11.1 4.9l-94 94.1c-3.5 3.5-5.1 8.5-5.1 11.8 0 3.3 1.6 8.2 5.1 11.8 3.2 3.2 7.4 5.1 11.8 5.1 4.3 0 8.5-1.8 11.8-5.1l93.8-93.9c3.2-3.3 5-7.5 5-11.9zM762.3 476.9c0-4.4-1.8-8.8-5.2-12.1-3.3-3.3-7.6-5.2-12.1-5.2s-8.8 1.8-12.1 5.2l-134.6 135c-3.9 3.9-5.2 7.1-5.2 12.1 0 4.5 1.6 8.1 5.2 11.7 3.3 3.3 7.6 5.2 12.1 5.2 4.4 0 8.7-1.8 12.1-5.2L757.2 489c3.3-3.3 5.1-7.6 5.1-12.1zM679.3 435c0-4.3-1.8-8.5-5.1-11.8-3.2-3.2-7.4-5-11.8-5-4.3 0-8.5 1.8-11.8 5l-93.8 93.9c-3.5 3.5-5.1 8.5-5.1 11.8 0 3.3 1.6 8.2 5.1 11.8 3.2 3.2 7.7 5 12.4 5 4.6 0 8.4-1.7 10.6-4.8l94.4-94.2c3.3-3.2 5.1-7.4 5.1-11.7z"  horiz-adv-x="1024" />

    
    <glyph glyph-name="churuku-" unicode="&#58907;" d="M1015.319552 542.72L536.087552 885.76a38.4 38.4 0 0 1-45.568 0L8.215552 542.72a19.456 19.456 0 0 1 11.776-35.328h97.28v-614.4a19.968 19.968 0 0 1 19.968-19.968h750.592a19.968 19.968 0 0 1 19.968 19.968v614.4h96.768a19.456 19.456 0 0 1 10.752 35.328zM479.255552 427.008v-79.36h307.2v-57.856h-307.2v-79.36l-204.8 106.496z m102.4-392.704v79.36h-307.2v57.856h307.2V250.88l204.8-105.984z"  horiz-adv-x="1024" />

    


  </font>
</defs>
</svg>
